<?xml version="1.0" encoding="UTF-8" standalone="no"?>
<!-- Created with Inkscape (http://www.inkscape.org/) -->

<svg
   xmlns:dc="http://purl.org/dc/elements/1.1/"
   xmlns:cc="http://creativecommons.org/ns#"
   xmlns:rdf="http://www.w3.org/1999/02/22-rdf-syntax-ns#"
   xmlns:svg="http://www.w3.org/2000/svg"
   xmlns="http://www.w3.org/2000/svg"
   xmlns:sodipodi="http://sodipodi.sourceforge.net/DTD/sodipodi-0.dtd"
   xmlns:inkscape="http://www.inkscape.org/namespaces/inkscape"
   width="32px"
   height="32px"
   viewBox="0 0 121.42484 123.85706"
   version="1.1"
   id="svg8"
   sodipodi:docname="logo_black.svg"
   inkscape:version="0.92.3 (2405546, 2018-03-11)">
  <defs
     id="defs2" />
  <sodipodi:namedview
     id="base"
     pagecolor="#ffffff"
     bordercolor="#666666"
     borderopacity="1.0"
     inkscape:pageopacity="0.0"
     inkscape:pageshadow="2"
     inkscape:zoom="1.4"
     inkscape:cx="-54.310265"
     inkscape:cy="189.44369"
     inkscape:document-units="mm"
     inkscape:current-layer="layer1"
     showgrid="false"
     inkscape:window-width="2560"
     inkscape:window-height="1390"
     inkscape:window-x="0"
     inkscape:window-y="0"
     inkscape:window-maximized="1"
     fit-margin-top="0"
     fit-margin-left="0"
     fit-margin-right="0"
     fit-margin-bottom="0" />
  <metadata
     id="metadata5">
    <rdf:RDF>
      <cc:Work
         rdf:about="">
        <dc:format>image/svg+xml</dc:format>
        <dc:type
           rdf:resource="http://purl.org/dc/dcmitype/StillImage" />
        <dc:title></dc:title>
      </cc:Work>
    </rdf:RDF>
  </metadata>
  <g
     inkscape:label="Layer 1"
     inkscape:groupmode="layer"
     id="layer1"
     transform="translate(-42.339829,-74.721938)">
    <path
       style="fill:#000000;stroke-width:0.26458332"
       d="m 102.51232,198.45884 c -1.44654,-0.56711 -1.82263,-2.3839 -0.75591,-3.65162 0.58622,-0.69668 0.66146,-1.02947 0.66146,-2.92567 0,-2.05607 -0.0256,-2.146 -0.65516,-2.30402 -0.88319,-0.22166 -2.421268,-1.96952 -2.650148,-3.01159 -0.10197,-0.4643 -0.10764,-1.25869 -0.0126,-1.76532 0.20479,-1.09163 1.736118,-2.8839 2.662748,-3.11646 0.65448,-0.16427 0.65515,-0.1679 0.65515,-3.55286 0,-3.27222 -0.0227,-3.40973 -0.66146,-4.00983 -1.75065,-1.64465 0.0779,-4.60346 2.28094,-3.69092 1.52139,0.63018 1.98354,2.98931 0.73797,3.76718 -0.45624,0.28493 -0.50537,0.65732 -0.50537,3.83039 0,3.4 0.0194,3.52234 0.59531,3.74619 0.7906,0.30731 1.94862,1.55927 2.29827,2.4847 0.68399,1.8103 -0.11915,4.02286 -1.81102,4.98918 l -1.07849,0.61599 -0.002,2.30195 c -0.002,1.65706 0.0983,2.36124 0.35621,2.51355 1.02917,0.60783 1.15645,2.5128 0.22207,3.32361 -0.60336,0.52357 -1.64618,0.72676 -2.33795,0.45555 z M 93.289743,193.9632 C 81.741093,191.60338 69.803452,185.07599 61.794496,176.74191 53.066929,167.66004 47.63878,156.32843 46.470803,144.75272 l -0.173524,-1.71979 3.321751,0.0813 3.321751,0.0813 v 0.67923 c 0,1.25306 1.306973,7.15016 2.138487,9.64891 0.452782,1.36065 1.258179,3.39149 1.789771,4.51298 l 0.966534,2.03908 1.90767,-1.24533 c 1.885793,-1.23105 1.905936,-1.2564 1.756462,-2.21037 -0.08317,-0.53078 -0.01225,-1.38613 0.15761,-1.90078 0.3591,-1.08809 2.157132,-2.82272 2.925895,-2.82272 0.492924,0 0.528404,-0.17766 0.528404,-2.64583 v -2.64584 h -1.611913 c -1.211283,0 -1.779116,0.13153 -2.28464,0.52917 -1.578543,1.24168 -3.51178,0.25971 -3.51178,-1.78379 0,-0.86048 0.145891,-1.20298 0.69714,-1.63659 0.96587,-0.75975 2.231761,-0.71214 3.007027,0.11309 0.57668,0.61385 0.79901,0.66146 3.088828,0.66146 h 2.467422 v 3.67803 3.67803 l 0.940832,0.55511 c 1.852945,1.09326 2.496497,4.12327 1.23703,5.82425 -1.293498,1.74695 -3.272012,2.30933 -5.236612,1.48847 -0.91657,-0.38297 -0.94443,-0.37425 -3.026513,0.94763 l -2.10143,1.33417 1.557084,2.31571 c 4.84782,7.20974 10.544892,12.43564 18.434965,16.91032 1.326957,0.75255 2.549979,1.36828 2.717819,1.36828 0.22217,0 0.28559,-1.34304 0.23318,-4.93828 l -0.072,-4.93827 -3.892645,-2.40391 c -3.884565,-2.39893 -3.892672,-2.40598 -3.902604,-3.39611 l -0.01,-0.99218 h 2.116667 c 1.607912,0 2.116666,0.0865 2.116666,0.35971 0,0.31648 13.460396,9.12909 14.628346,9.57727 0.41748,0.16021 0.4529,-0.21121 0.4529,-4.7493 0,-2.70771 0.0893,-4.91846 0.19844,-4.9128 0.10914,0.006 0.85328,0.40095 1.653649,0.87841 l 1.45521,0.86811 0.0706,6.95681 c 0.0626,6.16386 0.0243,6.93906 -0.3355,6.80099 -0.44957,-0.17252 -8.306219,-4.97442 -9.458539,-5.78096 l -0.72761,-0.50928 v 4.74006 4.74005 l 3.24115,1.0708 c 1.78263,0.58894 4.16388,1.27395 5.29167,1.52223 l 2.050519,0.45143 v 3.28073 c 0,3.78622 0.34843,3.49655 -3.307289,2.74955 z m 1.19062,-3.14212 c 0,-0.5328 -0.15498,-0.80342 -0.51385,-0.89727 -0.63723,-0.16664 -0.80907,-0.005 -0.80907,0.75881 0,0.52592 0.27569,0.73938 1.12448,0.87066 0.10914,0.0169 0.19844,-0.31261 0.19844,-0.7322 z m -2.53586,-0.72567 c 0.13056,-0.43341 0.0358,-0.59747 -0.41305,-0.71484 -0.76704,-0.20058 -1.01984,-0.0161 -1.01984,0.74441 0,0.37984 0.18227,0.66817 0.46302,0.73244 0.55739,0.12761 0.74669,-0.0211 0.96987,-0.76201 z m -2.49122,-1.05772 c 0,-0.30462 -0.98503,-0.79022 -1.18906,-0.58619 -0.05,0.05 -0.17028,0.40732 -0.26736,0.79413 -0.13849,0.5518 -0.0719,0.72729 0.30922,0.81472 0.5062,0.11612 1.1472,-0.4553 1.1472,-1.02266 z m -2.56935,-0.36348 c 0.0936,-0.35804 -0.0297,-0.62776 -0.3704,-0.8101 -0.61462,-0.32894 -0.91686,-0.17715 -1.1088,0.55687 -0.10409,0.39802 0.0147,0.60932 0.43108,0.7668 0.69798,0.26399 0.86636,0.18149 1.04812,-0.51357 z m -2.60583,-0.95792 c 0.0956,-0.38097 0.13829,-0.71711 0.0948,-0.74697 -0.0435,-0.0299 -1.76,-0.90122 -3.81452,-1.93636 l -3.73549,-1.88208 -0.299405,0.65712 c -0.164672,0.36142 -0.299403,0.69968 -0.299403,0.7517 0,0.28763 7.087218,3.82004 7.710378,3.84301 0.0934,0.003 0.24799,-0.30545 0.34361,-0.68642 z m -9.279242,-4.56072 c 0.857892,-0.94796 -0.324911,-2.20468 -1.379673,-1.46589 -0.688644,0.48235 -0.741135,1.30169 -0.107053,1.67101 0.671065,0.39086 0.986787,0.3473 1.486726,-0.20512 z m -3.036491,-3.11521 c -0.430916,-0.51922 -0.848953,-0.4486 -1.262279,0.21325 -0.315532,0.50524 -0.298995,0.62033 0.134792,0.93816 0.433469,0.3176 0.552029,0.29131 0.961445,-0.21324 0.357156,-0.44015 0.396214,-0.66083 0.166042,-0.93817 z m -2.398432,-0.91712 c 0.315815,-0.5057 0.245764,-0.63712 -0.796253,-1.49386 -0.628391,-0.51666 -2.374487,-2.18704 -3.880212,-3.71195 l -2.737681,-2.77256 -0.53889,0.53889 -0.538888,0.53889 1.292196,1.50856 c 1.42145,1.65946 6.162104,5.93689 6.586363,5.9428 0.146897,0.002 0.42291,-0.24581 0.613365,-0.55077 z m -9.087559,-9.22955 c 0.459597,-0.50785 0.442304,-0.5656 -0.574299,-1.91823 -0.57649,-0.76704 -1.48417,-2.07922 -2.01707,-2.91597 -0.532897,-0.83674 -1.066691,-1.52135 -1.186206,-1.52135 -0.119515,0 -0.439436,0.16243 -0.710936,0.36095 -0.476334,0.3483 -0.46963,0.40163 0.191281,1.52136 1.074256,1.82002 3.367262,4.99685 3.606683,4.99685 0.119177,0 0.429925,-0.23562 0.690547,-0.52361 z m -4.889764,-8.7204 c 0,-0.23531 -0.179597,-0.68424 -0.399106,-0.99763 -1.16436,-1.66236 -3.355872,-8.00492 -4.094832,-11.85106 -0.465214,-2.42136 -0.50968,-2.51355 -1.212434,-2.51355 -0.840984,0 -0.838221,0.57566 0.02093,4.36563 0.854149,3.76788 1.781413,6.55514 3.191486,9.59325 1.121884,2.41719 1.145837,2.44543 1.815418,2.14034 0.373195,-0.17003 0.678534,-0.50168 0.678534,-0.73698 z m 54.504165,30.03483 v -3.28627 l 0.79375,-0.17434 c 0.78123,-0.17159 0.79375,-0.20108 0.79375,-1.86979 0,-1.68887 0.004,-1.69802 1.05308,-2.36022 0.57919,-0.36563 1.11497,-0.66478 1.19062,-0.66478 0.0757,0 0.13755,0.89297 0.13755,1.98437 0,1.10934 0.11348,1.98438 0.25735,1.98438 1.47666,0 12.3583,-4.6629 13.97204,-5.98717 0.59513,-0.48837 0.60235,-0.56459 0.52917,-5.591 l -0.0742,-5.09589 -1.32292,0.89111 c -1.95838,1.31916 -17.04924,10.75587 -17.20041,10.75587 -0.0714,0 -0.1298,-3.3658 -0.1298,-7.47956 v -7.47955 l 1.5875,-0.87273 1.5875,-0.87274 v 5.29397 c 0,3.25212 0.10229,5.35718 0.2652,5.45786 0.14586,0.0902 0.77094,-0.18745 1.38906,-0.6169 0.61813,-0.42944 3.0884,-2.02059 5.48949,-3.53589 2.4011,-1.51531 5.17087,-3.28367 6.15505,-3.9297 l 1.78943,-1.1746 -0.0696,-8.72366 -0.0696,-8.72365 -5.29167,-3.37846 -5.29166,-3.37846 -5.23622,-0.004 -5.23622,-0.004 0.0768,-2.18282 0.0769,-2.18281 5.86898,-0.0851 c 4.24573,-0.0616 6.0386,0.004 6.48229,0.23713 1.01911,0.53542 12.22036,7.69184 12.718,8.12547 0.42667,0.37179 0.46276,1.2363 0.45974,11.01194 l -0.003,10.60847 -0.92276,0.59774 -0.92277,0.59775 v 5.05508 5.05508 l 0.7276,-0.46661 c 1.18652,-0.7609 4.03952,-3.01714 5.95313,-4.70791 l 1.78594,-1.57797 -0.0102,-6.24533 -0.0102,-6.24533 -0.82759,-0.52917 c -1.38915,-0.88823 -1.93244,-1.85253 -1.91194,-3.39354 0.0226,-1.69673 0.66134,-2.96116 1.85029,-3.66266 l 0.90962,-0.53671 v -3.67803 -3.67803 h 2.37935 2.37934 l -0.0415,1.05833 -0.0415,1.05833 h -1.41183 -1.41184 v 2.47781 2.47779 l 1.23888,0.63755 c 1.63719,0.84253 2.55654,2.46382 2.39634,4.22602 l -0.11093,1.2202 3.67885,2.31259 c 2.02337,1.27192 3.73545,2.25598 3.80463,2.18681 0.0692,-0.0692 0.47389,-0.94456 0.89936,-1.9453 0.70913,-1.6679 0.73711,-1.84707 0.33579,-2.15024 -0.68223,-0.51537 -1.03875,-0.39704 -1.395,0.46302 -0.39268,0.94802 -0.49856,0.96336 -1.48567,0.21536 -0.41981,-0.31813 -0.80362,-0.60651 -0.85292,-0.64085 -0.0493,-0.0343 0.38389,-1.41118 0.96264,-3.05962 1.2211,-3.47806 2.32644,-7.84109 2.58589,-10.20707 l 0.18133,-1.65365 h 3.27312 3.27311 v 0.75909 c 0,2.01915 -1.54178,8.97545 -2.81937,12.72061 -0.82663,2.42321 -3.13449,7.35872 -4.49411,9.61098 -3.56267,5.90168 -9.89933,12.85059 -15.44069,16.93259 -7.0258,5.1755 -15.77131,9.14941 -23.74686,10.79045 -3.84013,0.79013 -3.50522,1.05488 -3.50522,-2.77082 z m 5.95313,-0.45063 c 5.60501,-1.59973 12.25527,-4.66496 17.28368,-7.96634 1.55355,-1.01999 2.87473,-1.90013 2.93594,-1.95586 0.0612,-0.0557 -0.15795,-0.38791 -0.48702,-0.73819 l -0.5983,-0.63686 -2.93014,1.97118 c -5.00643,3.36795 -12.80246,6.79146 -18.91614,8.30674 -1.01848,0.25243 -1.12448,0.35534 -1.12448,1.0917 0,0.79479 0.0222,0.80901 0.99219,0.63462 0.5457,-0.0981 1.82562,-0.41626 2.84427,-0.70699 z m 24.47692,-13.55522 c 1.2353,-1.07045 2.76796,-2.56924 3.40591,-3.33064 l 1.15993,-1.38437 -0.56199,-0.56199 -0.56199,-0.56199 -2.18543,2.2643 c -1.20199,1.24536 -2.76869,2.75975 -3.48155,3.36531 -1.26534,1.07487 -1.28478,1.11353 -0.81889,1.62834 0.26248,0.29003 0.54941,0.52732 0.63762,0.52732 0.0882,0 1.1711,-0.87582 2.40639,-1.94628 z m 6.09423,-6.54239 c 0.23533,-0.43972 0.20216,-0.65374 -0.16399,-1.05834 -0.57912,-0.63992 -0.69907,-0.63487 -1.12513,0.0474 -0.29477,0.472 -0.27845,0.62948 0.10965,1.05833 0.58263,0.6438 0.81456,0.63449 1.17947,-0.0473 z m -3.66466,-2.02851 c 0.52457,-0.69123 1.54338,-2.11551 2.26403,-3.16508 l 1.31026,-1.9083 1.66036,1.20815 c 1.30321,0.94828 1.71196,1.13111 1.90024,0.84997 0.62516,-0.93347 0.78235,-1.35894 0.5774,-1.56281 -0.12262,-0.12198 -1.79458,-1.23305 -3.71546,-2.46905 l -3.49251,-2.24727 -1.10732,0.43498 -1.10733,0.43497 0.16806,2.36771 c 0.0924,1.30224 0.16807,3.48051 0.16807,4.8406 0,1.36009 0.0946,2.4729 0.21021,2.4729 0.11562,0 0.63941,-0.56555 1.16399,-1.25677 z m 5.2122,-1.46509 c -0.5926,-0.47986 -0.6127,-0.47753 -1.07144,0.12423 -0.45224,0.59321 -0.4484,0.62824 0.11762,1.07206 0.56147,0.44026 0.60479,0.43523 1.07144,-0.12422 0.47543,-0.56999 0.4728,-0.59398 -0.11762,-1.07207 z m 6.54124,-10.93258 c 0.278,-1.10764 -1.02554,-1.66694 -1.36828,-0.58708 -0.12755,0.4019 -0.038,0.68086 0.29732,0.92604 0.68546,0.50122 0.87516,0.44118 1.07096,-0.33896 z m 0.9308,-2.70579 c 0.18148,-0.49058 0.10135,-0.63476 -0.47445,-0.85368 -0.8103,-0.30807 -0.78957,-0.32006 -1.01749,0.58807 -0.13802,0.5499 -0.0706,0.73027 0.30922,0.82702 0.73138,0.18629 0.94335,0.0857 1.18272,-0.56141 z m 0.58231,-2.47111 c 0.18957,-0.72491 0.0148,-1.01241 -0.61562,-1.01241 -0.5176,0 -0.95032,0.85911 -0.66514,1.32055 0.29823,0.48255 1.12608,0.28338 1.28076,-0.30814 z m 0.5413,-2.28438 c 0.0726,-0.11751 0.21405,-0.83188 0.31429,-1.5875 0.17751,-1.33816 0.16503,-1.37387 -0.48022,-1.37387 -0.53031,0 -0.69547,0.16496 -0.82784,0.82683 -0.2549,1.27448 -0.19767,2.02646 0.16536,2.17295 0.50415,0.20342 0.68411,0.19508 0.82841,-0.0384 z m -72.861217,17.27926 -0.89756,-0.92604 h 1.90399 1.90398 v -2.11667 c 0,-1.16417 0.0637,-2.11667 0.1416,-2.11667 0.0779,0 0.43507,0.19229 0.79375,0.42731 0.62035,0.40646 0.65215,0.55486 0.65215,3.04271 v 2.6154 h -1.80018 c -1.71,0 -1.84514,-0.0464 -2.69773,-0.92604 z m 34.395837,-1.68936 c 0,-2.48785 0.0318,-2.63625 0.65215,-3.04271 0.35868,-0.23502 0.71086,-0.42731 0.78261,-0.42731 0.0718,0 0.16525,0.92274 0.20775,2.05052 l 0.0773,2.05053 1.68226,0.0795 1.68226,0.0795 -1.0208,0.90166 c -0.90384,0.79835 -1.19513,0.90293 -2.54216,0.91268 l -1.52135,0.011 z m -22.092718,-2.036 c -3.783539,-2.39228 -8.634999,-5.44976 -10.781009,-6.79441 -2.14601,-1.34465 -3.89955,-2.50435 -3.89676,-2.57711 0.003,-0.0728 0.91807,-0.70663 2.03393,-1.40861 1.63685,-1.02971 2.13414,-1.22774 2.57384,-1.02495 0.29975,0.13826 4.20544,2.5283 8.6793,5.31122 4.473869,2.78291 8.264917,5.05984 8.424567,5.05984 0.26612,0 7.39818,-4.37266 14.32002,-8.77961 1.55818,-0.99204 2.9274,-1.8037 3.04271,-1.80369 0.11531,3e-5 1.14927,0.60207 2.29769,1.33788 1.91952,1.22988 2.04764,1.36585 1.5875,1.68479 -0.95076,0.65902 -21.25922,13.38141 -21.33081,13.36285 -0.0395,-0.0102 -3.167428,-1.97593 -6.950978,-4.3682 z M 73.842864,152.18477 v -5.79713 l 6.680729,-4.26656 6.68073,-4.26657 1.85208,0.0757 1.85209,0.0757 0.0768,2.18281 0.0768,2.18281 h -1.06651 c -0.88114,0 -1.60731,0.35142 -4.17789,2.02184 -1.71126,1.11201 -4.15318,2.66703 -5.426482,3.45561 l -2.315105,1.43376 v 4.34961 4.3496 H 75.95953 73.842863 Z m 18.070139,-3.06557 c -0.90272,-0.63326 -1.85154,-1.26903 -2.10847,-1.41282 -0.43059,-0.24097 -0.41603,-0.30399 0.18611,-0.805 0.53264,-0.44319 1.03188,-0.54518 2.70378,-0.55236 l 2.05052,-0.009 v 1.98438 c 0,1.88716 -0.0292,1.98343 -0.59531,1.96518 -0.32742,-0.0106 -1.3339,-0.53732 -2.23663,-1.17058 z m 4.948619,-0.7946 v -1.98438 h 9.681698 c 9.18542,0 9.7152,0.0264 10.33507,0.51394 l 0.65336,0.51393 -0.74392,0.39085 c -0.40916,0.21497 -1.3905,0.87667 -2.18077,1.47044 l -1.43685,1.07959 h -8.1543 -8.154288 z m -3.704179,-8.20209 v -2.24896 h 0.79375 0.79375 v 2.24896 2.24896 h -0.79375 -0.79375 z m 3.495039,0.0661 c 0.075,-2.13145 0.0924,-2.18281 0.7383,-2.18281 0.65013,0 0.66188,0.0374 0.68596,2.18281 l 0.0245,2.18281 h -0.7628 -0.7628 l 0.0768,-2.18281 z m -32.840768,-0.24117 c -0.496665,-0.3403 -1.133417,-1.06521 -1.415002,-1.61092 l -0.511977,-0.99218 h -5.794893 -5.794894 v -0.92604 -0.92605 h 5.799042 5.799042 l 0.484812,-0.97511 c 1.527591,-3.07248 5.876743,-3.04767 7.342831,0.0419 l 0.442849,0.93323 h 2.661372 c 2.45278,0 2.722983,-0.0518 3.44747,-0.66145 0.989402,-0.83253 2.090142,-0.84498 3.03262,-0.0343 1.552353,1.33528 0.556514,3.87074 -1.520288,3.87074 -0.744074,0 -1.123445,-0.16582 -1.513313,-0.66145 -0.496102,-0.6307 -0.649814,-0.66146 -3.304704,-0.66146 H 70.18228 l -0.484812,0.97511 c -0.704839,1.41766 -1.66987,2.01491 -3.457818,2.14002 -1.272744,0.089 -1.674241,0.004 -2.427936,-0.51203 z m 74.276886,-0.0695 c -0.55977,-0.38848 -1.11691,-1.07104 -1.30992,-1.60482 l -0.33587,-0.92882 h -2.84524 c -2.68214,0 -2.88315,0.0379 -3.50669,0.66146 -1.25822,1.25821 -3.31593,0.67858 -3.75146,-1.05674 -0.53617,-2.13628 2.19263,-3.67709 3.75146,-2.11826 0.62103,0.62103 0.83019,0.66145 3.42218,0.66145 h 2.76072 l 0.53794,-1.05446 c 1.54835,-3.03501 5.79278,-2.96411 7.25687,0.12123 l 0.44285,0.93323 h 7.18301 7.183 l 0.68551,-0.65676 c 0.37703,-0.36121 1.06567,-0.73279 1.53032,-0.82571 0.72949,-0.1459 0.97654,-0.0372 1.80984,0.79607 0.85185,0.85184 0.94692,1.07667 0.81057,1.91686 -0.19646,1.21067 -0.8139,1.89113 -1.90105,2.09508 -0.95026,0.17827 -2.34263,-0.39275 -2.60128,-1.06679 -0.13515,-0.35218 -1.13035,-0.40666 -7.42799,-0.40666 h -7.27193 l -0.44191,0.93125 c -0.64574,1.3608 -1.78963,2.06686 -3.53436,2.18157 -1.24216,0.0817 -1.62489,-0.009 -2.44657,-0.57918 z M 43.130846,138.1584 c -1.326308,-1.32631 -0.93547,-3.26441 0.803565,-3.98474 1.533384,-0.63515 3.185537,0.57008 3.185537,2.32382 0,1.19265 -1.214601,2.43432 -2.38125,2.43432 -0.569515,0 -1.080009,-0.24556 -1.607852,-0.7734 z m 42.194667,-5.53039 c -1.32439,-0.82578 -4.449775,-2.80605 -6.945312,-4.4006 l -4.537337,-2.89918 v -10.27347 -10.27348 l 3.955272,-2.57006 3.955267,-2.570053 0.0135,-4.70173 0.0135,-4.701725 -1.120026,0.5714 c -3.977293,2.02906 -9.456581,6.038295 -13.131011,9.608068 -2.32999,2.26361 -5.9451,6.60848 -6.86248,8.24774 -0.245679,0.43901 -0.331816,0.42102 -1.217101,-0.25423 -0.523992,-0.39966 -0.952712,-0.82583 -0.952712,-0.94702 0,-0.1212 0.539713,-1.00859 1.199361,-1.97198 0.999898,-1.46031 1.152361,-1.83945 0.916734,-2.27972 -0.155448,-0.29046 -0.439785,-0.5281 -0.631862,-0.5281 -0.377772,0 -2.247231,2.51705 -3.372001,4.54007 -0.832204,1.49683 -1.101442,1.16625 3.299283,4.05087 l 3.131309,2.05252 1.02674,-0.463 c 1.227029,-0.55331 2.9103,-0.41084 3.932525,0.33285 0.376402,0.27384 0.959946,1.0267 1.296763,1.67302 1.060437,2.03489 0.479155,4.15309 -1.484212,5.40847 l -0.827593,0.52917 -0.01019,3.77031 -0.0102,3.77031 h -2.397223 -2.39722 l 0.08212,-0.99218 0.08212,-0.99219 1.389063,-0.08 1.389062,-0.08 v -2.61148 -2.61149 l -0.912817,-0.30126 c -1.844816,-0.60884 -3.064209,-2.79653 -2.693863,-4.83301 0.155527,-0.85523 0.138202,-0.87137 -3.197083,-2.97656 -1.844399,-1.16417 -3.442348,-2.15403 -3.550991,-2.19969 -0.168031,-0.0706 -1.022329,1.28838 -1.022329,1.62631 0,0.0629 0.76794,0.61468 1.706531,1.2262 l 1.706533,1.11185 -0.680683,1.49891 c -1.134403,2.49805 -2.667963,7.43514 -3.136601,10.09788 -0.243308,1.38245 -0.492289,2.78143 -0.553288,3.10885 -0.107752,0.57839 -0.20179,0.59531 -3.306845,0.59531 H 46.27428 l 0.182528,-1.65364 c 0.356632,-3.23093 1.176554,-6.8459 2.347645,-10.35056 4.985464,-14.91977 15.868367,-27.031458 30.726991,-34.196398 4.928429,-2.37653 11.588379,-4.512309 15.544268,-4.984897 l 1.52136,-0.181745 -0.002,3.260182 -0.002,3.26019 -2.974299,0.70605 c -1.63586,0.38833 -4.01608,1.0842 -5.28939,1.54638 l -2.3151,0.84032 v 4.48561 4.485595 l 1.12448,-0.75803 c 1.69036,-1.13936 9.095819,-5.617385 9.289879,-5.617385 0.0931,0 0.16919,3.424995 0.16919,7.611095 v 7.611103 l -1.5174,0.92171 c -0.834569,0.50694 -1.606169,0.96063 -1.714679,1.0082 -0.1085,0.0476 -0.22934,-2.53859 -0.26854,-5.74702 l -0.0713,-5.833503 -5.15937,3.1864 c -2.83766,1.752523 -6.17141,3.862423 -7.408336,4.688673 l -2.248958,1.50229 -0.06983,8.37647 -0.06983,8.37647 5.662824,3.59593 5.66282,3.59593 h 13.882637 13.88263 l 4.46917,-2.81635 c 2.45804,-1.549 4.97673,-3.12658 5.5971,-3.50573 l 1.12794,-0.68938 -0.0696,-8.55753 -0.0696,-8.55754 -7.35327,-4.60548 c -4.04429,-2.533023 -7.4078,-4.605493 -7.47447,-4.605493 -0.0667,0 -0.12122,2.39117 -0.12122,5.313723 0,2.92253 -0.0893,5.27232 -0.19844,5.22175 -0.10914,-0.0506 -0.82351,-0.49501 -1.5875,-0.98764 l -1.38906,-0.89569 v -7.243273 -7.243285 l 0.80252,0.415 0.80252,0.415 -0.0749,-2.98789 -0.0749,-2.9879 -0.7276,-0.0837 -0.72761,-0.0837 v -3.28972 c 0,-3.845061 -0.34549,-3.585816 3.68434,-2.764589 5.57538,1.13619 13.32302,4.305709 19.06983,7.801369 7.93844,4.82878 15.55213,12.484455 19.80231,19.911498 4.08889,7.14522 6.91466,15.25616 7.37644,21.17294 l 0.14971,1.91823 h -3.2012 -3.2012 l -0.15833,-0.99218 c -0.7998,-5.01196 -1.98863,-9.37356 -3.46938,-12.72846 -0.34411,-0.77964 -0.56294,-1.519 -0.48629,-1.64302 0.0767,-0.12402 0.84535,-0.66126 1.70823,-1.19385 l 1.56886,-0.96836 -0.3854,-0.74528 c -0.21197,-0.40991 -0.47941,-0.80339 -0.59429,-0.87439 -0.18565,-0.11474 -6.1762,3.48308 -6.78284,4.07365 -0.1326,0.12909 -0.25167,0.9333 -0.26459,1.78714 -0.0284,1.87624 -0.87887,3.19224 -2.53532,3.92307 l -1.06005,0.46769 v 2.59491 2.59492 h 1.76511 c 1.21942,0 1.90454,-0.12619 2.21614,-0.40819 0.24807,-0.2245 0.877,-0.4773 1.39762,-0.56179 0.81509,-0.13227 1.06308,-0.0371 1.78524,0.68504 0.73023,0.73024 0.81837,0.96533 0.68178,1.81857 -0.19692,1.23004 -1.00293,1.90595 -2.27283,1.90595 -0.70633,0 -1.15775,-0.18612 -1.60431,-0.66146 -0.58106,-0.61851 -0.79019,-0.66146 -3.22111,-0.66146 h -2.59972 l -0.0102,-3.77031 -0.0102,-3.77031 -0.82759,-0.52917 c -1.3781,-0.88116 -1.91125,-1.82708 -1.91125,-3.39095 0,-3.22775 2.87674,-5.25665 5.7507,-4.05584 l 0.99115,0.41413 3.56493,-2.26582 c 1.96071,-1.24621 3.56493,-2.41191 3.56493,-2.59045 0,-0.61271 -3.21315,-5.15227 -5.67161,-8.01289 -3.71039,-4.317353 -9.02162,-8.736808 -14.1158,-11.745718 -2.12392,-1.2545 -2.29825,-1.31243 -2.621,-0.87104 -0.19017,0.26007 -0.34267,0.59892 -0.33889,0.75301 0.004,0.15409 0.97699,0.86745 2.16271,1.58525 1.75175,1.06045 5.85405,4.009355 7.84562,5.639755 0.35346,0.28935 0.30917,0.42866 -0.35746,1.12448 -0.4185,0.43681 -0.86472,0.79421 -0.99161,0.79421 -0.12688,0 -1.16529,-0.71144 -2.30756,-1.58098 -2.21555,-1.68656 -6.29292,-4.322605 -8.1445,-5.265485 l -1.12448,-0.57262 0.0128,4.701725 0.0128,4.70173 3.95564,2.513533 3.95565,2.51355 2.6e-4,10.33831 3.4e-4,10.33831 -7.0358,4.41221 -7.0358,4.41222 -15.51993,-0.0199 -15.519927,-0.0199 -2.40798,-1.50142 z m 71.990777,-6.76113 c -0.44784,-2.87437 -3.01672,-11.27675 -3.44768,-11.27675 -0.0532,0 -0.40454,0.14027 -0.78081,0.31171 -0.47197,0.21504 -0.62989,0.44069 -0.50922,0.72761 0.86273,2.05136 2.12105,5.94357 2.65782,8.2211 0.36011,1.52797 0.69872,2.91223 0.75246,3.07615 0.0555,0.16924 0.4001,0.24022 0.79751,0.16425 0.6575,-0.12569 0.68952,-0.19967 0.52992,-1.22407 z m -106.694537,0.51055 c 0.07832,-0.40971 -0.01564,-0.70175 -0.255378,-0.79375 -0.826937,-0.31732 -1.12976,-0.14358 -1.12976,0.64821 0,0.65992 0.10632,0.79375 0.630613,0.79375 0.459108,0 0.664316,-0.17629 0.754525,-0.64821 z m 0.688713,-2.62738 c 0.09494,-0.49775 -0.342974,-0.94607 -0.931542,-0.95369 -0.379828,-0.005 -0.71528,0.93955 -0.472964,1.33162 0.275881,0.44639 1.299835,0.17086 1.404506,-0.37793 z m 0.662922,-2.59984 c 0.181806,-0.69522 0.213757,-0.6526 -0.652132,-0.86992 -0.592852,-0.1488 -0.710869,-0.0771 -0.820896,0.49843 -0.07068,0.36971 0.003,0.72649 0.163772,0.79284 0.680826,0.28101 1.166455,0.12472 1.309256,-0.42135 z m 0.800113,-2.65738 c 0.149281,-0.55885 -0.370832,-1.25678 -0.936582,-1.25678 -0.409306,0 -0.56977,1.37053 -0.18872,1.61185 0.606216,0.38392 0.957509,0.27308 1.125302,-0.35507 z m 1.225614,-2.93182 c 0,-0.24935 -0.783564,-0.94627 -1.082009,-0.96238 -0.168875,-0.009 -0.839062,1.34469 -0.713835,1.44197 0.695254,0.5401 1.162783,0.60634 1.465114,0.2076 0.181902,-0.23991 0.33073,-0.54915 0.33073,-0.68719 z M 70.604563,94.269297 c 1.126222,-0.85522 3.08551,-2.244045 4.353972,-3.086285 1.975321,-1.31157 2.269385,-1.60029 2.049098,-2.01191 -0.483497,-0.90342 -0.823296,-0.82759 -3.1174,0.69563 -4.75515,3.15729 -10.370616,7.950475 -12.010462,10.251768 -0.503975,0.70726 -0.507087,0.7656 -0.06679,1.25213 0.449636,0.49683 0.544685,0.4304 3.602861,-2.518043 1.727573,-1.66558 4.062494,-3.72807 5.188717,-4.58329 z m 50.069557,-1.771785 c 0,-2.40109 -0.0298,-4.36566 -0.0661,-4.3657 -0.0364,-4e-5 -1.19724,-0.40027 -2.57969,-0.88939 -1.38245,-0.48912 -2.84096,-0.9676 -3.24114,-1.06329 l -0.72761,-0.17399 0.009,3.51077 0.009,3.51077 3.09955,1.898715 c 1.70475,1.0443 3.18884,1.9075 3.29798,1.91823 0.10913,0.0107 0.19843,-1.94502 0.19843,-4.346115 z m -38.281147,-5.44569 c 2.04323,-0.98042 2.24217,-1.14101 2.05191,-1.65645 -0.11589,-0.31392 -0.39478,-0.60718 -0.61976,-0.65168 -0.31112,-0.0615 -4.981581,2.05779 -5.436529,2.46694 -0.04646,0.0418 0.0726,0.3303 0.264583,0.64114 0.431697,0.69895 0.76426,0.62781 3.739796,-0.79995 z m 44.101977,-0.40788 c 0,-0.49379 -1.08052,-0.7546 -1.3519,-0.3263 -0.35282,0.55682 -0.27836,0.9696 0.22742,1.26069 0.48705,0.28032 1.12448,-0.24936 1.12448,-0.93439 z m -2.80643,-0.51807 c 0.25588,-0.66682 0.19409,-0.86785 -0.35746,-1.16304 -0.4231,-0.22643 -0.57474,-0.17135 -0.82725,0.30048 -0.25691,0.48004 -0.22787,0.63719 0.17175,0.9294 0.6238,0.45613 0.81717,0.44337 1.01296,-0.0668 z m -36.669757,-1.03834 c 0.20077,-0.17328 -0.30314,-1.4531 -0.57073,-1.44951 -0.69375,0.009 -1.03369,0.47402 -0.85821,1.17321 0.14562,0.58019 0.28067,0.67301 0.76342,0.5247 0.32257,-0.0991 0.62206,-0.21089 0.66552,-0.2484 z m 34.140517,-0.27202 c 0.27057,-0.59383 0.23759,-0.69701 -0.28826,-0.90176 -0.4349,-0.16933 -0.68227,-0.11797 -0.92451,0.19196 -0.60571,0.77498 -0.4134,1.12046 0.75128,1.34965 0.0858,0.0169 0.29345,-0.27105 0.46149,-0.63985 z m -31.754577,-1.11313 c -0.0852,-0.73801 -0.61851,-1.02906 -1.19825,-0.65392 -0.55878,0.36157 -0.0911,1.37926 0.6338,1.37926 0.55058,0 0.63557,-0.10921 0.56445,-0.72534 z m 28.903367,0.16777 c 0.16412,-0.30667 0.19807,-0.6484 0.0755,-0.75942 -0.30339,-0.27467 -3.66561,-1.26095 -5.05159,-1.48184 -1.11562,-0.17781 -1.12448,-0.17288 -1.12448,0.62509 0,0.72821 0.0973,0.82074 1.02796,0.97798 0.56538,0.0955 1.72624,0.39278 2.57969,0.66058 2.02606,0.63575 2.14129,0.63472 2.49297,-0.0224 z m -26.262227,-0.37012 c 0.20077,-0.17328 -0.30314,-1.4531 -0.57073,-1.44951 -0.69375,0.009 -1.03369,0.47402 -0.85821,1.17321 0.14562,0.58019 0.28068,0.67301 0.76342,0.5247 0.32257,-0.0991 0.62206,-0.21089 0.66552,-0.2484 z m 2.43452,-1.18898 c 0,-0.43656 -0.10933,-0.79375 -0.24294,-0.79375 -0.64811,0 -1.07998,0.38163 -1.07998,0.95435 0,0.49898 0.14018,0.63315 0.66146,0.63315 0.55857,0 0.66146,-0.12347 0.66146,-0.79375 z m -4.69973,43.171478 c -0.22616,-0.14356 0.46324,-0.74063 2.13385,-1.84803 1.35737,-0.89977 2.54951,-1.63595 2.64921,-1.63595 0.0997,0 0.18125,0.83344 0.18125,1.85209 v 1.85208 l -2.3151,-0.004 c -1.27331,-0.002 -2.46545,-0.0995 -2.64921,-0.21614 z m 9.197649,-1.63189 v -1.85209 h 2.778128 2.77812 v 1.85209 1.85208 h -2.77812 -2.778128 z m 7.937498,0 v -1.85209 h 2.62936 2.62936 l 2.50754,1.70011 c 1.68071,1.13952 2.37695,1.75022 2.1115,1.85209 -0.21782,0.0836 -2.52942,0.15197 -5.1369,0.15197 h -4.74086 z m 12.56771,-1.87045 c -2.78082,-1.88649 -15.90667,-10.11088 -16.13958,-10.11272 -0.23705,-0.002 -8.674397,5.23482 -14.759737,9.16073 -1.27838,0.82474 -2.43502,1.49952 -2.57031,1.49952 -0.35129,0 -4.23384,-2.38495 -4.23183,-2.5995 8e-4,-0.0982 0.32835,-0.37054 0.72761,-0.60511 0.39926,-0.23457 5.06958,-3.19974 10.37849,-6.58927 5.308919,-3.38953 9.862667,-6.21773 10.119447,-6.28488 0.41612,-0.10882 14.16935,8.26329 20.00058,12.17509 l 1.93716,1.29952 -1.27571,0.81019 c -0.70163,0.4456 -1.69242,1.06989 -2.20174,1.3873 l -0.92605,0.5771 z M 86.807443,109.43085 v -1.98439 h -1.90398 -1.90399 l 0.89756,-0.92604 c 0.85259,-0.87965 0.98773,-0.92604 2.69773,-0.92604 h 1.80018 v 2.49854 c 0,2.28199 -0.051,2.53425 -0.58804,2.91042 -0.32341,0.22654 -0.6806,0.41188 -0.79375,0.41188 -0.11314,0 -0.20571,-0.89297 -0.20571,-1.98437 z m 32.080737,1.66145 c -0.55762,-0.26893 -0.59531,-0.45207 -0.59531,-2.89252 v -2.6054 l 1.65364,0.01 c 1.4972,0.009 1.75378,0.0962 2.71198,0.9221 l 1.05833,0.91217 -1.91823,0.004 -1.91822,0.004 v 1.98439 c 0,2.07544 -0.0299,2.12553 -0.99219,1.66145 z m 25.91906,-4.24115 c -0.75932,-1.05503 -1.79247,-2.39448 -2.29588,-2.97656 l -0.91529,-1.05834 -0.01,1.65365 c -0.005,0.9095 -0.0919,1.65364 -0.192,1.65364 -0.10013,0 -0.57557,-0.26789 -1.05652,-0.59531 l -0.87446,-0.59531 -0.002,-2.39448 c -0.001,-1.52417 -0.11869,-2.51135 -0.32338,-2.716043 -0.25237,-0.25237 -0.14626,-0.49689 0.49313,-1.13627 l 0.8147,-0.8147 2.54482,2.844073 c 1.39966,1.56423 3.1442,3.71109 3.87677,4.77079 l 1.33195,1.92672 -0.88915,0.67819 c -0.48903,0.373 -0.94161,0.67819 -1.00575,0.67819 -0.0641,0 -0.73787,-0.86322 -1.49719,-1.91824 z m -43.137,-5.04414 c -0.82077,-0.87365 -0.77972,-2.398433 0.0862,-3.200913 0.63986,-0.59301 0.66146,-0.72473 0.66146,-4.03525 v -3.422235 l -0.91803,-0.33197 c -1.0955,-0.39613 -1.881078,-1.32578 -2.298968,-2.72058 -0.55018,-1.83635 0.55383,-4.1502 2.335378,-4.89458 0.87677,-0.36634 0.88162,-0.37826 0.88162,-2.17078 0,-1.580472 -0.0815,-1.878925 -0.66146,-2.423816 -1.821058,-1.710793 0.1829,-4.734235 2.42548,-3.659397 1.47843,0.708592 1.79244,2.960346 0.52809,3.786887 -0.51548,0.336979 -0.56388,0.566833 -0.48731,2.314156 0.0847,1.93354 0.0883,1.94175 1.05834,2.46116 1.31535,0.7043 2.24059,2.49359 2.08142,4.0252 -0.13867,1.33434 -1.25837,2.93113 -2.34226,3.34025 l -0.75022,0.28318 v 3.537595 c 0,3.33871 0.0331,3.56443 0.5893,4.01479 0.84566,0.68477 0.82895,2.512773 -0.0293,3.207753 -0.88338,0.71531 -2.4344,0.6606 -3.1597,-0.11145 z"
       id="path146"
       inkscape:connector-curvature="0" />
  </g>
</svg>
